<?xml version="1.0" encoding="UTF-8"?>
<svg width="159px" height="26px" viewBox="0 0 159 26" version="1.1" xmlns="http://www.w3.org/2000/svg" xmlns:xlink="http://www.w3.org/1999/xlink">
    <title>Group 78</title>
    <g id="Page-1" stroke="none" stroke-width="1" fill="none" fill-rule="evenodd">
        <g id="MARKET-BASE-1-v0_1-(Not-login)-(DesktopHD)" transform="translate(-246.000000, -25.000000)">
            <g id="Group-78" transform="translate(247.000000, 26.000000)">
                <path d="M41.96,23 L41.96,21.53 L42.782,20.768 L44.564,23 L45.092,23 L43.088,20.486 L45.002,18.716 L44.45,18.716 L41.96,21.02 L41.96,18.716 L41.552,18.716 L41.552,23 L41.96,23 Z M47.252,23 C47.6,23 47.876,22.956 48.08,22.868 C48.284,22.78 48.438,22.672 48.542,22.544 C48.646,22.416 48.713,22.283 48.743,22.145 C48.773,22.007 48.788,21.886 48.788,21.782 C48.788,21.502 48.706,21.267 48.542,21.077 C48.378,20.887 48.158,20.774 47.882,20.738 L47.882,20.738 L47.882,20.726 C47.994,20.702 48.095,20.66 48.185,20.6 C48.275,20.54 48.353,20.467 48.419,20.381 C48.485,20.295 48.536,20.199 48.572,20.093 C48.608,19.987 48.626,19.878 48.626,19.766 C48.626,19.566 48.588,19.399 48.512,19.265 C48.436,19.131 48.335,19.023 48.209,18.941 C48.083,18.859 47.937,18.801 47.771,18.767 C47.605,18.733 47.432,18.716 47.252,18.716 L47.252,18.716 L45.44,18.716 L45.44,23 L47.252,23 Z M47.252,20.594 L45.848,20.594 L45.848,19.064 L47.252,19.064 C47.896,19.064 48.218,19.332 48.218,19.868 C48.218,19.968 48.198,20.062 48.158,20.15 C48.118,20.238 48.058,20.315 47.978,20.381 C47.898,20.447 47.797,20.499 47.675,20.537 C47.553,20.575 47.412,20.594 47.252,20.594 L47.252,20.594 Z M47.252,22.652 L45.848,22.652 L45.848,20.942 L47.252,20.942 C47.616,20.942 47.895,21.011 48.089,21.149 C48.283,21.287 48.38,21.494 48.38,21.77 C48.38,21.946 48.35,22.09 48.29,22.202 C48.23,22.314 48.148,22.404 48.044,22.472 C47.94,22.54 47.82,22.587 47.684,22.613 C47.548,22.639 47.404,22.652 47.252,22.652 L47.252,22.652 Z M49.406,23 L49.922,21.668 L51.872,21.668 L52.394,23 L52.832,23 L51.152,18.716 L50.696,18.716 L48.974,23 L49.406,23 Z M51.734,21.32 L50.048,21.32 L50.906,19.124 L51.734,21.32 Z M53.63,23 L53.63,20.924 L56.174,20.924 L56.174,23 L56.582,23 L56.582,18.716 L56.174,18.716 L56.174,20.576 L53.63,20.576 L53.63,18.716 L53.222,18.716 L53.222,23 L53.63,23 Z M58.886,23 L58.886,19.064 L60.38,19.064 L60.38,18.716 L56.99,18.716 L56.99,19.064 L58.478,19.064 L58.478,23 L58.886,23 Z M62.576,23.084 C62.912,23.084 63.206,23.023 63.458,22.901 C63.71,22.779 63.92,22.616 64.088,22.412 C64.256,22.208 64.382,21.972 64.466,21.704 C64.55,21.436 64.592,21.154 64.592,20.858 C64.592,20.566 64.55,20.285 64.466,20.015 C64.382,19.745 64.256,19.507 64.088,19.301 C63.92,19.095 63.71,18.931 63.458,18.809 C63.206,18.687 62.912,18.626 62.576,18.626 C62.24,18.626 61.945,18.687 61.691,18.809 C61.437,18.931 61.226,19.095 61.058,19.301 C60.89,19.507 60.764,19.745 60.68,20.015 C60.596,20.285 60.554,20.566 60.554,20.858 C60.554,21.154 60.596,21.436 60.68,21.704 C60.764,21.972 60.89,22.208 61.058,22.412 C61.226,22.616 61.437,22.779 61.691,22.901 C61.945,23.023 62.24,23.084 62.576,23.084 Z M62.576,22.742 C62.292,22.742 62.048,22.688 61.844,22.58 C61.64,22.472 61.473,22.329 61.343,22.151 C61.213,21.973 61.117,21.772 61.055,21.548 C60.993,21.324 60.962,21.094 60.962,20.858 C60.962,20.626 60.993,20.397 61.055,20.171 C61.117,19.945 61.213,19.743 61.343,19.565 C61.473,19.387 61.64,19.244 61.844,19.136 C62.048,19.028 62.292,18.974 62.576,18.974 C62.856,18.974 63.098,19.028 63.302,19.136 C63.506,19.244 63.673,19.387 63.803,19.565 C63.933,19.743 64.029,19.945 64.091,20.171 C64.153,20.397 64.184,20.626 64.184,20.858 C64.184,21.094 64.153,21.324 64.091,21.548 C64.029,21.772 63.933,21.973 63.803,22.151 C63.673,22.329 63.506,22.472 63.302,22.58 C63.098,22.688 62.856,22.742 62.576,22.742 Z M67.04,23 C67.388,23 67.664,22.956 67.868,22.868 C68.072,22.78 68.226,22.672 68.33,22.544 C68.434,22.416 68.501,22.283 68.531,22.145 C68.561,22.007 68.576,21.886 68.576,21.782 C68.576,21.502 68.494,21.267 68.33,21.077 C68.166,20.887 67.946,20.774 67.67,20.738 L67.67,20.738 L67.67,20.726 C67.782,20.702 67.883,20.66 67.973,20.6 C68.063,20.54 68.141,20.467 68.207,20.381 C68.273,20.295 68.324,20.199 68.36,20.093 C68.396,19.987 68.414,19.878 68.414,19.766 C68.414,19.566 68.376,19.399 68.3,19.265 C68.224,19.131 68.123,19.023 67.997,18.941 C67.871,18.859 67.725,18.801 67.559,18.767 C67.393,18.733 67.22,18.716 67.04,18.716 L67.04,18.716 L65.228,18.716 L65.228,23 L67.04,23 Z M67.04,20.594 L65.636,20.594 L65.636,19.064 L67.04,19.064 C67.684,19.064 68.006,19.332 68.006,19.868 C68.006,19.968 67.986,20.062 67.946,20.15 C67.906,20.238 67.846,20.315 67.766,20.381 C67.686,20.447 67.585,20.499 67.463,20.537 C67.341,20.575 67.2,20.594 67.04,20.594 L67.04,20.594 Z M67.04,22.652 L65.636,22.652 L65.636,20.942 L67.04,20.942 C67.404,20.942 67.683,21.011 67.877,21.149 C68.071,21.287 68.168,21.494 68.168,21.77 C68.168,21.946 68.138,22.09 68.078,22.202 C68.018,22.314 67.936,22.404 67.832,22.472 C67.728,22.54 67.608,22.587 67.472,22.613 C67.336,22.639 67.192,22.652 67.04,22.652 L67.04,22.652 Z M71.132,23 C71.532,23 71.844,22.89 72.068,22.67 C72.292,22.45 72.404,22.148 72.404,21.764 C72.404,21.38 72.292,21.078 72.068,20.858 C71.844,20.638 71.532,20.528 71.132,20.528 L71.132,20.528 L69.638,20.528 L69.638,18.716 L69.23,18.716 L69.23,23 L71.132,23 Z M73.442,23 L73.442,18.716 L73.034,18.716 L73.034,23 L73.442,23 Z M71.042,22.652 L69.638,22.652 L69.638,20.876 L71.042,20.876 C71.342,20.876 71.576,20.955 71.744,21.113 C71.912,21.271 71.996,21.488 71.996,21.764 C71.996,22.04 71.912,22.257 71.744,22.415 C71.576,22.573 71.342,22.652 71.042,22.652 L71.042,22.652 Z M75.968,18.362 C76.22,18.362 76.418,18.295 76.562,18.161 C76.706,18.027 76.8,17.834 76.844,17.582 L76.844,17.582 L76.61,17.582 C76.578,17.738 76.507,17.859 76.397,17.945 C76.287,18.031 76.146,18.074 75.974,18.074 C75.794,18.074 75.651,18.03 75.545,17.942 C75.439,17.854 75.376,17.734 75.356,17.582 L75.356,17.582 L75.122,17.582 C75.154,17.834 75.24,18.027 75.38,18.161 C75.52,18.295 75.716,18.362 75.968,18.362 Z M74.834,23 L77.294,19.154 L77.294,23 L77.702,23 L77.702,18.716 L77.174,18.716 L74.714,22.562 L74.714,18.716 L74.306,18.716 L74.306,23 L74.834,23 Z M80.762,23 L83.222,19.154 L83.222,23 L83.63,23 L83.63,18.716 L83.102,18.716 L80.642,22.562 L80.642,18.716 L80.234,18.716 L80.234,23 L80.762,23 Z M84.902,23 L84.902,20.924 L87.446,20.924 L87.446,23 L87.854,23 L87.854,18.716 L87.446,18.716 L87.446,20.576 L84.902,20.576 L84.902,18.716 L84.494,18.716 L84.494,23 L84.902,23 Z M90.53,23 C90.878,23 91.154,22.956 91.358,22.868 C91.562,22.78 91.716,22.672 91.82,22.544 C91.924,22.416 91.991,22.283 92.021,22.145 C92.051,22.007 92.066,21.886 92.066,21.782 C92.066,21.502 91.984,21.267 91.82,21.077 C91.656,20.887 91.436,20.774 91.16,20.738 L91.16,20.738 L91.16,20.726 C91.272,20.702 91.373,20.66 91.463,20.6 C91.553,20.54 91.631,20.467 91.697,20.381 C91.763,20.295 91.814,20.199 91.85,20.093 C91.886,19.987 91.904,19.878 91.904,19.766 C91.904,19.566 91.866,19.399 91.79,19.265 C91.714,19.131 91.613,19.023 91.487,18.941 C91.361,18.859 91.215,18.801 91.049,18.767 C90.883,18.733 90.71,18.716 90.53,18.716 L90.53,18.716 L88.718,18.716 L88.718,23 L90.53,23 Z M90.53,20.594 L89.126,20.594 L89.126,19.064 L90.53,19.064 C91.174,19.064 91.496,19.332 91.496,19.868 C91.496,19.968 91.476,20.062 91.436,20.15 C91.396,20.238 91.336,20.315 91.256,20.381 C91.176,20.447 91.075,20.499 90.953,20.537 C90.831,20.575 90.69,20.594 90.53,20.594 L90.53,20.594 Z M90.53,22.652 L89.126,22.652 L89.126,20.942 L90.53,20.942 C90.894,20.942 91.173,21.011 91.367,21.149 C91.561,21.287 91.658,21.494 91.658,21.77 C91.658,21.946 91.628,22.09 91.568,22.202 C91.508,22.314 91.426,22.404 91.322,22.472 C91.218,22.54 91.098,22.587 90.962,22.613 C90.826,22.639 90.682,22.652 90.53,22.652 L90.53,22.652 Z M95.708,23 L95.708,22.652 L93.128,22.652 L93.128,20.96 L95.516,20.96 L95.516,20.612 L93.128,20.612 L93.128,19.064 L95.678,19.064 L95.678,18.716 L92.72,18.716 L92.72,23 L95.708,23 Z M98.096,23.084 C98.348,23.084 98.577,23.044 98.783,22.964 C98.989,22.884 99.168,22.77 99.32,22.622 C99.472,22.474 99.596,22.294 99.692,22.082 C99.788,21.87 99.85,21.632 99.878,21.368 L99.878,21.368 L99.47,21.368 C99.45,21.56 99.404,21.739 99.332,21.905 C99.26,22.071 99.166,22.216 99.05,22.34 C98.934,22.464 98.795,22.562 98.633,22.634 C98.471,22.706 98.292,22.742 98.096,22.742 C97.812,22.742 97.568,22.688 97.364,22.58 C97.16,22.472 96.993,22.329 96.863,22.151 C96.733,21.973 96.637,21.772 96.575,21.548 C96.513,21.324 96.482,21.094 96.482,20.858 C96.482,20.626 96.513,20.397 96.575,20.171 C96.637,19.945 96.733,19.743 96.863,19.565 C96.993,19.387 97.16,19.244 97.364,19.136 C97.568,19.028 97.812,18.974 98.096,18.974 C98.252,18.974 98.401,18.997 98.543,19.043 C98.685,19.089 98.815,19.156 98.933,19.244 C99.051,19.332 99.151,19.441 99.233,19.571 C99.315,19.701 99.374,19.848 99.41,20.012 L99.41,20.012 L99.818,20.012 C99.79,19.788 99.723,19.59 99.617,19.418 C99.511,19.246 99.379,19.101 99.221,18.983 C99.063,18.865 98.887,18.776 98.693,18.716 C98.499,18.656 98.3,18.626 98.096,18.626 C97.76,18.626 97.465,18.687 97.211,18.809 C96.957,18.931 96.746,19.095 96.578,19.301 C96.41,19.507 96.284,19.745 96.2,20.015 C96.116,20.285 96.074,20.566 96.074,20.858 C96.074,21.154 96.116,21.436 96.2,21.704 C96.284,21.972 96.41,22.208 96.578,22.412 C96.746,22.616 96.957,22.779 97.211,22.901 C97.465,23.023 97.76,23.084 98.096,23.084 Z M101.942,23 L101.942,19.064 L103.436,19.064 L103.436,18.716 L100.046,18.716 L100.046,19.064 L101.534,19.064 L101.534,23 L101.942,23 Z M104.366,23 L106.826,19.154 L106.826,23 L107.234,23 L107.234,18.716 L106.706,18.716 L104.246,22.562 L104.246,18.716 L103.838,18.716 L103.838,23 L104.366,23 Z M111.908,24.14 L111.908,22.652 L111.398,22.652 L111.398,18.716 L110.99,18.716 L110.99,22.652 L108.506,22.652 L108.506,18.716 L108.098,18.716 L108.098,23 L111.5,23 L111.5,24.14 L111.908,24.14 Z M112.916,23 L115.376,19.154 L115.376,23 L115.784,23 L115.784,18.716 L115.256,18.716 L112.796,22.562 L112.796,18.716 L112.388,18.716 L112.388,23 L112.916,23 Z M118.442,23.084 C118.778,23.084 119.072,23.023 119.324,22.901 C119.576,22.779 119.786,22.616 119.954,22.412 C120.122,22.208 120.248,21.972 120.332,21.704 C120.416,21.436 120.458,21.154 120.458,20.858 C120.458,20.566 120.416,20.285 120.332,20.015 C120.248,19.745 120.122,19.507 119.954,19.301 C119.786,19.095 119.576,18.931 119.324,18.809 C119.072,18.687 118.778,18.626 118.442,18.626 C118.106,18.626 117.811,18.687 117.557,18.809 C117.303,18.931 117.092,19.095 116.924,19.301 C116.756,19.507 116.63,19.745 116.546,20.015 C116.462,20.285 116.42,20.566 116.42,20.858 C116.42,21.154 116.462,21.436 116.546,21.704 C116.63,21.972 116.756,22.208 116.924,22.412 C117.092,22.616 117.303,22.779 117.557,22.901 C117.811,23.023 118.106,23.084 118.442,23.084 Z M118.442,22.742 C118.158,22.742 117.914,22.688 117.71,22.58 C117.506,22.472 117.339,22.329 117.209,22.151 C117.079,21.973 116.983,21.772 116.921,21.548 C116.859,21.324 116.828,21.094 116.828,20.858 C116.828,20.626 116.859,20.397 116.921,20.171 C116.983,19.945 117.079,19.743 117.209,19.565 C117.339,19.387 117.506,19.244 117.71,19.136 C117.914,19.028 118.158,18.974 118.442,18.974 C118.722,18.974 118.964,19.028 119.168,19.136 C119.372,19.244 119.539,19.387 119.669,19.565 C119.799,19.743 119.895,19.945 119.957,20.171 C120.019,20.397 120.05,20.626 120.05,20.858 C120.05,21.094 120.019,21.324 119.957,21.548 C119.895,21.772 119.799,21.973 119.669,22.151 C119.539,22.329 119.372,22.472 119.168,22.58 C118.964,22.688 118.722,22.742 118.442,22.742 Z M121.502,23 L121.502,20.924 L124.046,20.924 L124.046,23 L124.454,23 L124.454,18.716 L124.046,18.716 L124.046,20.576 L121.502,20.576 L121.502,18.716 L121.094,18.716 L121.094,23 L121.502,23 Z M125.726,23 L125.726,20.924 L128.27,20.924 L128.27,23 L128.678,23 L128.678,18.716 L128.27,18.716 L128.27,20.576 L125.726,20.576 L125.726,18.716 L125.318,18.716 L125.318,23 L125.726,23 Z M131.444,23 C131.844,23 132.156,22.89 132.38,22.67 C132.604,22.45 132.716,22.148 132.716,21.764 C132.716,21.38 132.604,21.078 132.38,20.858 C132.156,20.638 131.844,20.528 131.444,20.528 L131.444,20.528 L129.95,20.528 L129.95,18.716 L129.542,18.716 L129.542,23 L131.444,23 Z M133.754,23 L133.754,18.716 L133.346,18.716 L133.346,23 L133.754,23 Z M131.354,22.652 L129.95,22.652 L129.95,20.876 L131.354,20.876 C131.654,20.876 131.888,20.955 132.056,21.113 C132.224,21.271 132.308,21.488 132.308,21.764 C132.308,22.04 132.224,22.257 132.056,22.415 C131.888,22.573 131.654,22.652 131.354,22.652 L131.354,22.652 Z M136.28,18.362 C136.532,18.362 136.73,18.295 136.874,18.161 C137.018,18.027 137.112,17.834 137.156,17.582 L137.156,17.582 L136.922,17.582 C136.89,17.738 136.819,17.859 136.709,17.945 C136.599,18.031 136.458,18.074 136.286,18.074 C136.106,18.074 135.963,18.03 135.857,17.942 C135.751,17.854 135.688,17.734 135.668,17.582 L135.668,17.582 L135.434,17.582 C135.466,17.834 135.552,18.027 135.692,18.161 C135.832,18.295 136.028,18.362 136.28,18.362 Z M135.146,23 L137.606,19.154 L137.606,23 L138.014,23 L138.014,18.716 L137.486,18.716 L135.026,22.562 L135.026,18.716 L134.618,18.716 L134.618,23 L135.146,23 Z M142.718,23.144 L142.718,22.604 C143.03,22.6 143.31,22.556 143.558,22.472 C143.806,22.388 144.017,22.269 144.191,22.115 C144.365,21.961 144.499,21.775 144.593,21.557 C144.687,21.339 144.734,21.094 144.734,20.822 C144.734,20.558 144.688,20.318 144.596,20.102 C144.504,19.886 144.371,19.701 144.197,19.547 C144.023,19.393 143.812,19.273 143.564,19.187 C143.316,19.101 143.034,19.054 142.718,19.046 L142.718,19.046 L142.718,18.59 L142.31,18.59 L142.31,19.046 C141.994,19.054 141.712,19.101 141.464,19.187 C141.216,19.273 141.005,19.393 140.831,19.547 C140.657,19.701 140.524,19.886 140.432,20.102 C140.34,20.318 140.294,20.558 140.294,20.822 C140.294,21.094 140.341,21.339 140.435,21.557 C140.529,21.775 140.663,21.961 140.837,22.115 C141.011,22.269 141.222,22.388 141.47,22.472 C141.718,22.556 141.998,22.6 142.31,22.604 L142.31,22.604 L142.31,23.144 L142.718,23.144 Z M142.31,22.274 C141.778,22.242 141.376,22.103 141.104,21.857 C140.832,21.611 140.696,21.266 140.696,20.822 C140.696,20.374 140.83,20.028 141.098,19.784 C141.366,19.54 141.77,19.406 142.31,19.382 L142.31,19.382 L142.31,22.274 Z M142.718,22.274 L142.718,19.382 C143.258,19.406 143.662,19.54 143.93,19.784 C144.198,20.028 144.332,20.374 144.332,20.822 C144.332,21.266 144.196,21.611 143.924,21.857 C143.652,22.103 143.25,22.242 142.718,22.274 L142.718,22.274 Z M147.14,23.084 C147.476,23.084 147.77,23.023 148.022,22.901 C148.274,22.779 148.484,22.616 148.652,22.412 C148.82,22.208 148.946,21.972 149.03,21.704 C149.114,21.436 149.156,21.154 149.156,20.858 C149.156,20.566 149.114,20.285 149.03,20.015 C148.946,19.745 148.82,19.507 148.652,19.301 C148.484,19.095 148.274,18.931 148.022,18.809 C147.77,18.687 147.476,18.626 147.14,18.626 C146.804,18.626 146.509,18.687 146.255,18.809 C146.001,18.931 145.79,19.095 145.622,19.301 C145.454,19.507 145.328,19.745 145.244,20.015 C145.16,20.285 145.118,20.566 145.118,20.858 C145.118,21.154 145.16,21.436 145.244,21.704 C145.328,21.972 145.454,22.208 145.622,22.412 C145.79,22.616 146.001,22.779 146.255,22.901 C146.509,23.023 146.804,23.084 147.14,23.084 Z M147.14,22.742 C146.856,22.742 146.612,22.688 146.408,22.58 C146.204,22.472 146.037,22.329 145.907,22.151 C145.777,21.973 145.681,21.772 145.619,21.548 C145.557,21.324 145.526,21.094 145.526,20.858 C145.526,20.626 145.557,20.397 145.619,20.171 C145.681,19.945 145.777,19.743 145.907,19.565 C146.037,19.387 146.204,19.244 146.408,19.136 C146.612,19.028 146.856,18.974 147.14,18.974 C147.42,18.974 147.662,19.028 147.866,19.136 C148.07,19.244 148.237,19.387 148.367,19.565 C148.497,19.743 148.593,19.945 148.655,20.171 C148.717,20.397 148.748,20.626 148.748,20.858 C148.748,21.094 148.717,21.324 148.655,21.548 C148.593,21.772 148.497,21.973 148.367,22.151 C148.237,22.329 148.07,22.472 147.866,22.58 C147.662,22.688 147.42,22.742 147.14,22.742 Z M150.2,23 L150.2,20.924 L152.744,20.924 L152.744,23 L153.152,23 L153.152,18.716 L152.744,18.716 L152.744,20.576 L150.2,20.576 L150.2,18.716 L149.792,18.716 L149.792,23 L150.2,23 Z M153.992,24.14 L153.992,23 L157.424,23 L157.424,24.14 L157.832,24.14 L157.832,22.652 L157.322,22.652 L157.322,18.716 L154.67,18.716 L154.67,19.28 C154.67,19.524 154.665,19.784 154.655,20.06 C154.645,20.336 154.619,20.62 154.577,20.912 C154.535,21.204 154.472,21.497 154.388,21.791 C154.304,22.085 154.186,22.372 154.034,22.652 L154.034,22.652 L153.584,22.652 L153.584,24.14 L153.992,24.14 Z M156.914,22.652 L154.466,22.652 C154.618,22.368 154.735,22.074 154.817,21.77 C154.899,21.466 154.96,21.164 155,20.864 C155.04,20.564 155.063,20.273 155.069,19.991 C155.075,19.709 155.078,19.448 155.078,19.208 L155.078,19.208 L155.078,19.064 L156.914,19.064 L156.914,22.652 Z" id="КВАНТОВЫЙИНВЕСТИЦИОННЫЙФОНД" fill="#717FB0" fill-rule="nonzero"></path>
                <g id="Group">
                    <g id="Group-9" transform="translate(0.750000, 0.500000)" stroke="#717FB0" stroke-linecap="round">
                        <line x1="29" y1="12.25" x2="31" y2="8.75" id="Line-4"></line>
                        <line x1="22" y1="0.75" x2="29" y2="4.75" id="Line-8"></line>
                        <line x1="22" y1="5.75" x2="31" y2="8.75" id="Line-11"></line>
                        <line x1="29" y1="4.75" x2="31" y2="8.75" id="Line-11"></line>
                        <path d="M18.5,15.25 L29,12.25 L18.5,15.25 Z" id="Line-3"></path>
                        <line x1="22" y1="5.75" x2="29" y2="12.25" id="Line-10"></line>
                        <line x1="15.5" y1="0.25" x2="22" y2="0.75" id="Line-13"></line>
                        <line x1="22" y1="5.75" x2="22" y2="0.75" id="Line-9"></line>
                        <line x1="22" y1="5.75" x2="7.5" y2="1.25" id="Line-2"></line>
                        <line x1="15.5" y1="0.25" x2="7.5" y2="1.25" id="Line-2"></line>
                        <path d="M22,5.76 C22,5.76 20.5,7.59 17.5,11.25 C20.5,7.59 22,5.76 22,5.76 Z" id="Line-5"></path>
                        <line x1="17.5" y1="11.25" x2="18.5" y2="15.25" id="Line-6"></line>
                        <line x1="9.75" y1="17" x2="18.5" y2="15.25" id="Line-12"></line>
                        <line x1="17.5" y1="11.25" x2="1.5" y2="6.25" id="Line-2"></line>
                        <line x1="18.5" y1="15.25" x2="1.5" y2="6.25" id="Line-2"></line>
                        <line x1="7.5" y1="1.25" x2="1.5" y2="6.25" id="Line-15"></line>
                        <line x1="1.5" y1="6.25" x2="0" y2="14.75" id="Line-16"></line>
                        <line x1="1.5" y1="6.25" x2="3.5" y2="11.25" id="Line-17"></line>
                        <line x1="0" y1="14.75" x2="3.5" y2="18.25" id="Line-18"></line>
                        <line x1="3.5" y1="11.25" x2="0" y2="14.75" id="Line-19"></line>
                        <line x1="3.5" y1="11.25" x2="3.5" y2="18.25" id="Line-20"></line>
                        <line x1="9" y1="17.25" x2="3.5" y2="22.75" id="Line-23"></line>
                        <line x1="3.5" y1="18.25" x2="3.5" y2="22.75" id="Line-21"></line>
                    </g>
                    <g id="Group-5" fill="#FFFFFF" stroke="#FFFFFF" stroke-width="0.5">
                        <rect id="Rectangle" x="3.5" y="11" width="1.5" height="1.5" rx="0.75"></rect>
                        <rect id="Rectangle" x="0" y="14.5" width="1.5" height="1.5" rx="0.75"></rect>
                        <rect id="Rectangle" x="3.5" y="18" width="1.5" height="1.5" rx="0.75"></rect>
                        <rect id="Rectangle" x="3.5" y="22.5" width="1.5" height="1.5" rx="0.75"></rect>
                        <rect id="Rectangle" x="1.5" y="6" width="1.5" height="1.5" rx="0.75"></rect>
                        <rect id="Rectangle" x="9" y="17" width="1.5" height="1.5" rx="0.75"></rect>
                        <rect id="Rectangle" x="18.5" y="15" width="1.5" height="1.5" rx="0.75"></rect>
                        <rect id="Rectangle" x="17.5" y="11" width="1.5" height="1.5" rx="0.75"></rect>
                        <rect id="Rectangle" x="7.5" y="1" width="1.5" height="1.5" rx="0.75"></rect>
                        <rect id="Rectangle" x="15.5" y="0" width="1.5" height="1.5" rx="0.75"></rect>
                        <rect id="Rectangle" x="22" y="0.5" width="1.5" height="1.5" rx="0.75"></rect>
                        <rect id="Rectangle" x="22" y="5.5" width="1.5" height="1.5" rx="0.75"></rect>
                        <rect id="Rectangle" x="29" y="4.5" width="1.5" height="1.5" rx="0.75"></rect>
                        <rect id="Rectangle" x="29" y="12" width="1.5" height="1.5" rx="0.75"></rect>
                        <rect id="Rectangle" x="31" y="8.5" width="1.5" height="1.5" rx="0.75"></rect>
                    </g>
                </g>
                <path d="M48.854,14 C50.366,14 51.647,12.74 51.647,11.186 C51.647,8.77317241 49.3320559,8.32290844 46.9372861,7.98993587 L46.4237139,7.91970741 C44.0289441,7.5940761 41.714,7.25393103 41.714,5.054 C41.714,4.445 41.945,3.878 42.365,3.458 L42.554,3.29 C42.953,2.975 43.436,2.807 43.94,2.807 L48.749,2.807 C49.253,2.807 49.736,2.975 50.114,3.29 L50.324,3.458 C50.744,3.878 50.975,4.445 50.975,5.054 C50.975,5.201 51.101,5.327 51.269,5.327 C51.416,5.327 51.542,5.201 51.542,5.054 L51.542,5.033 C51.542,4.298 51.248,3.584 50.723,3.059 L50.66,2.996 C50.135,2.513 49.463,2.24 48.749,2.24 L43.94,2.24 C43.226,2.24 42.554,2.513 42.029,2.996 L41.966,3.059 C41.441,3.605 41.147,4.298 41.147,5.054 C41.147,7.385 43.373,8.036 46.229,8.393 C47.867,8.792 51.08,8.519 51.08,11.186 C51.08,12.425 50.072,13.433 48.854,13.433 L43.793,13.433 C43.205,13.433 42.638,13.202 42.218,12.782 L42.155,12.698 C41.777,12.278 41.567,11.753 41.567,11.186 C41.567,11.039 41.441,10.913 41.273,10.913 C41.126,10.913 41,11.039 41,11.186 L41,11.291 C41.021,11.963 41.294,12.614 41.756,13.097 L41.819,13.181 C42.344,13.706 43.058,14 43.793,14 L48.854,14 Z M59.984,14 C62.672,14 64.919,11.753 64.919,9.065 L64.919,2.534 C64.919,2.387 64.793,2.261 64.646,2.261 C64.478,2.261 64.352,2.387 64.352,2.534 L64.352,9.065 C64.352,11.459 62.357,13.433 59.984,13.433 L58.976,13.433 C56.582,13.433 54.608,11.459 54.608,9.065 L54.608,2.534 C54.608,2.387 54.482,2.261 54.314,2.261 C54.167,2.261 54.041,2.387 54.041,2.534 L54.041,9.065 C54.041,11.753 56.267,14 58.976,14 L59.984,14 Z M67.229,14 C67.397,14 67.523,13.874 67.523,13.727 L67.523,9.821 L73.487,9.821 C75.524,9.779 77.225,8.099 77.225,6.041 C77.225,3.983 75.503,2.261 73.445,2.261 L69.329,2.261 C68.72,2.261 68.153,2.492 67.712,2.891 L67.649,2.954 C67.208,3.395 66.956,4.004 66.956,4.634 L66.956,13.727 C66.956,13.874 67.082,14 67.229,14 Z M73.445,9.254 L67.523,9.254 L67.523,4.634 C67.523,4.151 67.712,3.689 68.048,3.353 L68.237,3.164 L68.237,3.185 C68.552,2.954 68.93,2.828 69.329,2.828 L73.445,2.828 C75.146,2.828 76.658,4.256 76.658,6.041 C76.658,7.826 75.146,9.254 73.445,9.254 Z M87.83,14 C87.998,14 88.124,13.874 88.124,13.727 C88.124,13.559 87.998,13.433 87.83,13.433 L83.693,13.433 C81.299,13.433 79.325,11.459 79.325,9.065 L79.325,8.414 L87.095,8.414 C87.242,8.414 87.368,8.288 87.368,8.12 C87.368,7.973 87.242,7.847 87.095,7.847 L79.325,7.847 L79.325,7.196 C79.325,4.802 81.299,2.828 83.693,2.828 L87.83,2.828 C87.998,2.828 88.124,2.702 88.124,2.534 C88.124,2.387 87.998,2.261 87.83,2.261 L83.693,2.261 C80.984,2.261 78.758,4.529 78.758,7.196 L78.758,9.065 C78.758,11.753 81.005,14 83.693,14 L87.83,14 Z M100.01,14 C100.178,14 100.304,13.874 100.304,13.727 C100.304,13.643 100.262,13.58 100.22,13.517 L96.566,9.863 L97.091,9.8 C98.981,9.569 100.409,7.91 100.409,6.041 C100.409,3.983 98.687,2.261 96.629,2.261 L92.513,2.261 C91.904,2.261 91.337,2.492 90.896,2.891 L90.833,2.954 C90.392,3.395 90.14,4.004 90.14,4.634 L90.14,13.727 C90.14,13.874 90.266,14 90.413,14 C90.581,14 90.707,13.874 90.707,13.727 L90.707,9.821 L95.726,9.821 L99.821,13.916 C99.863,13.979 99.947,14 100.01,14 Z M96.629,9.254 L90.707,9.254 L90.707,4.634 C90.707,4.151 90.896,3.689 91.232,3.353 L91.421,3.164 L91.421,3.185 C91.736,2.954 92.114,2.828 92.513,2.828 L96.629,2.828 C98.33,2.828 99.842,4.256 99.842,6.041 C99.842,7.826 98.33,9.254 96.629,9.254 Z M102.803,14 C102.971,14 103.097,13.874 103.097,13.727 L103.097,2.534 C103.097,2.387 102.971,2.261 102.803,2.261 C102.656,2.261 102.53,2.387 102.53,2.534 L102.53,13.727 C102.53,13.874 102.656,14 102.803,14 Z M113.24,14 C115.886,14 118.175,11.774 118.175,9.065 L118.175,7.196 C118.175,4.508 115.928,2.261 113.24,2.261 L110.93,2.261 C108.242,2.261 105.995,4.508 105.995,7.196 L105.995,9.065 C105.995,11.753 108.221,14 110.93,14 L113.24,14 Z M113.24,13.433 L110.93,13.433 C108.536,13.433 106.562,11.459 106.562,9.065 L106.562,7.196 C106.562,4.802 108.536,2.828 110.93,2.828 L113.24,2.828 C115.613,2.828 117.608,4.802 117.608,7.196 L117.608,9.065 C117.608,11.459 115.613,13.433 113.24,13.433 Z M130.292,14 C130.46,14 130.586,13.874 130.586,13.727 C130.586,13.643 130.544,13.58 130.502,13.517 L126.848,9.863 L127.373,9.8 C129.263,9.569 130.691,7.91 130.691,6.041 C130.691,3.983 128.969,2.261 126.911,2.261 L122.795,2.261 C122.186,2.261 121.619,2.492 121.178,2.891 L121.115,2.954 C120.674,3.395 120.422,4.004 120.422,4.634 L120.422,13.727 C120.422,13.874 120.548,14 120.695,14 C120.863,14 120.989,13.874 120.989,13.727 L120.989,9.821 L126.008,9.821 L130.103,13.916 C130.145,13.979 130.229,14 130.292,14 Z M126.911,9.254 L120.989,9.254 L120.989,4.634 C120.989,4.151 121.178,3.689 121.514,3.353 L121.703,3.164 L121.703,3.185 C122.018,2.954 122.396,2.828 122.795,2.828 L126.911,2.828 C128.612,2.828 130.124,4.256 130.124,6.041 C130.124,7.826 128.612,9.254 126.911,9.254 Z M133.085,14 C133.253,14 133.379,13.874 133.379,13.727 L133.379,2.534 C133.379,2.387 133.253,2.261 133.085,2.261 C132.938,2.261 132.812,2.387 132.812,2.534 L132.812,13.727 C132.812,13.874 132.938,14 133.085,14 Z M141.401,14 C141.548,14 141.674,13.874 141.674,13.727 L141.674,2.828 L146.231,2.828 C146.378,2.828 146.504,2.702 146.504,2.534 C146.504,2.387 146.378,2.261 146.231,2.261 L136.55,2.261 C136.403,2.261 136.277,2.387 136.277,2.534 C136.277,2.702 136.403,2.828 136.55,2.828 L141.107,2.828 L141.107,13.727 C141.107,13.874 141.233,14 141.401,14 Z M152.489,14 C152.636,14 152.762,13.874 152.762,13.727 L152.762,10.682 L153.014,10.661 C154.19,10.556 155.282,10.052 156.101,9.233 L156.101,9.212 C157.025,8.288 157.55,7.049 157.55,5.726 L157.55,2.534 C157.55,2.387 157.424,2.261 157.277,2.261 C157.109,2.261 156.983,2.387 156.983,2.534 L156.983,5.726 C156.983,8.099 155.03,10.115 152.615,10.115 L152.363,10.115 C149.948,10.115 147.995,8.099 147.995,5.726 L147.995,2.534 C147.995,2.387 147.869,2.261 147.701,2.261 C147.554,2.261 147.428,2.387 147.428,2.534 L147.428,5.726 C147.428,8.267 149.444,10.43 151.964,10.661 L152.216,10.682 L152.216,13.727 C152.216,13.874 152.342,14 152.489,14 Z" id="SUPERIORITY" fill="#FFFFFF" fill-rule="nonzero"></path>
            </g>
        </g>
    </g>
</svg>