<svg height="19" viewBox="0 0 25 19" width="25" xmlns="http://www.w3.org/2000/svg"><path d="m323.87868 13.2573593 6.363961 6.363961c.143969.1439692.252555.3099227.325757.4870544l-.068398-.1083747c.333333.5.5 1 .5 1.5 0 .4635695-.143264.927139-.429793 1.3907086-.074596.1774137-.183322.3437267-.327566.4879711l-6.363961 6.363961c-.585787.5857864-1.535534.5857864-2.121321 0-.585786-.5857865-.585786-1.5355339 0-2.1213204l4.621641-4.6223008-18.879.0009805c-.828427 0-1.5-.6715729-1.5-1.5s.671573-1.5 1.5-1.5l18.878-.0009805-4.620641-4.6203398c-.585786-.5857865-.585786-1.5355339 0-2.1213204.585787-.5857864 1.535534-.5857864 2.121321 0z" fill="#fff" fill-rule="evenodd" transform="translate(-306 -12)"/></svg>