<?xml version="1.0" encoding="UTF-8"?>
<svg width="10px" height="6px" viewBox="0 0 10 6" version="1.1" xmlns="http://www.w3.org/2000/svg" xmlns:xlink="http://www.w3.org/1999/xlink">
    <title>Shape</title>
    <g id="Page-1" stroke="none" stroke-width="1" fill="none" fill-rule="evenodd">
        <g id="MARKET-BASE-1-v0_1-(Not-login)-(Desktop)" transform="translate(-717.000000, -142.000000)" fill="#717FB0">
            <g id="Group-7" transform="translate(38.000000, 125.000000)">
                <g id="Group-6" transform="translate(490.000000, 0.000000)">
                    <g id="Arrow_left" transform="translate(194.000000, 20.000000) rotate(270.000000) translate(-194.000000, -20.000000) translate(191.000000, 15.000000)">
                        <path d="M2.40888889,4.91111111 L5.47111111,1.84888889 C5.64946949,1.68269282 5.72288816,1.43239507 5.66256493,1.19618764 C5.60224169,0.9599802 5.41779758,0.775536087 5.18159014,0.715212852 C4.9453827,0.654889616 4.69508496,0.728308287 4.52888889,0.906666667 L0.528888889,4.90666667 L1.55555556,5.93333333 L4.54222222,8.92 C4.70841829,9.09835838 4.95871604,9.17177705 5.19492347,9.11145381 C5.43113091,9.05113058 5.61557502,8.86668647 5.67589826,8.63047903 C5.73622149,8.39427159 5.66280282,8.14397385 5.48444444,7.97777778 L2.40888889,4.91111111 Z" id="Shape"></path>
                    </g>
                </g>
            </g>
        </g>
    </g>
</svg>