<?xml version="1.0" encoding="UTF-8"?>
<svg width="16px" height="15px" viewBox="0 0 16 15" version="1.1" xmlns="http://www.w3.org/2000/svg" xmlns:xlink="http://www.w3.org/1999/xlink">
    <title>Filter-2</title>
    <g id="Page-1" stroke="none" stroke-width="1" fill="none" fill-rule="evenodd">
        <g id="MARKET-BASE-1-v0_1-(Not-login)-(Tablet)" transform="translate(-533.000000, -138.000000)" fill="#2D80FF">
            <g id="Group-7" transform="translate(32.000000, 125.000000)">
                <g id="Group-11" transform="translate(489.000000, 0.000000)">
                    <g id="Filter-2" transform="translate(12.000000, 13.000000)">
                        <path d="M0.826046512,2.75348837 L1.8344186,2.75348837 C2.08218287,3.63453338 2.88571034,4.24326383 3.80093023,4.24326383 C4.71615012,4.24326383 5.51967759,3.63453338 5.76744186,2.75348837 L15.3376744,2.75348837 C15.6459264,2.75348837 15.895814,2.50360079 15.895814,2.19534884 C15.895814,1.88709688 15.6459264,1.6372093 15.3376744,1.6372093 L5.77116279,1.6372093 C5.52339852,0.75616429 4.71987105,0.147433841 3.80465116,0.147433841 C2.88943127,0.147433841 2.0859038,0.75616429 1.83813953,1.6372093 L0.826046512,1.6372093 C0.517794558,1.6372093 0.267906977,1.88709688 0.267906977,2.19534884 C0.267906977,2.50360079 0.517794558,2.75348837 0.826046512,2.75348837 Z M3.8027907,1.26511628 C4.31654395,1.26511628 4.73302326,1.68159558 4.73302326,2.19534884 C4.73302326,2.70910209 4.31654395,3.1255814 3.8027907,3.1255814 C3.28903744,3.1255814 2.87255814,2.70910209 2.87255814,2.19534884 C2.87255814,1.68159558 3.28903744,1.26511628 3.8027907,1.26511628 Z" id="Shape"></path>
                        <path d="M15.3376744,6.84651163 L9.98697674,6.84651163 C9.68248128,6.0596611 8.92557323,5.54096295 8.08186047,5.54096295 C7.2381477,5.54096295 6.48123965,6.0596611 6.17674419,6.84651163 L0.826046512,6.84651163 C0.517794558,6.84651163 0.267906977,7.09639921 0.267906977,7.40465116 C0.267906977,7.71290312 0.517794558,7.9627907 0.826046512,7.9627907 L6.07255814,7.9627907 C6.25469528,8.92999801 7.09951368,9.63057542 8.08372093,9.63057542 C9.06792818,9.63057542 9.91274658,8.92999801 10.0948837,7.9627907 L15.3376744,7.9627907 C15.6459264,7.9627907 15.895814,7.71290312 15.895814,7.40465116 C15.895814,7.09639921 15.6459264,6.84651163 15.3376744,6.84651163 Z M8.08186047,8.52093023 C7.56810721,8.52093023 7.15162791,8.10445093 7.15162791,7.59069767 C7.15162791,7.07694442 7.56810721,6.66046512 8.08186047,6.66046512 C8.59561372,6.66046512 9.01209302,7.07694442 9.01209302,7.59069767 C9.01209302,8.10445093 8.59561372,8.52093023 8.08186047,8.52093023 Z" id="Shape"></path>
                        <path d="M15.3376744,12.055814 L14.3293023,12.055814 C14.0815381,11.1747689 13.2780106,10.5660385 12.3627907,10.5660385 C11.4475708,10.5660385 10.6440433,11.1747689 10.3962791,12.055814 L0.826046512,12.055814 C0.517794558,12.055814 0.267906977,12.3057015 0.267906977,12.6139535 C0.267906977,12.9222054 0.517794558,13.172093 0.826046512,13.172093 L10.3925581,13.172093 C10.6403224,14.053138 11.4438499,14.6618685 12.3590698,14.6618685 C13.2742897,14.6618685 14.0778171,14.053138 14.3255814,13.172093 L15.3376744,13.172093 C15.6459264,13.172093 15.895814,12.9222054 15.895814,12.6139535 C15.895814,12.3057015 15.6459264,12.055814 15.3376744,12.055814 Z M12.3609302,13.544186 C11.847177,13.544186 11.4306977,13.1277067 11.4306977,12.6139535 C11.4306977,12.1002002 11.847177,11.6837209 12.3609302,11.6837209 C12.8746835,11.6837209 13.2911628,12.1002002 13.2911628,12.6139535 C13.2911628,13.1277067 12.8746835,13.544186 12.3609302,13.544186 Z" id="Shape"></path>
                    </g>
                </g>
            </g>
        </g>
    </g>
</svg>