<?xml version="1.0" encoding="UTF-8"?>
<svg width="12px" height="12px" viewBox="0 0 12 12" version="1.1" xmlns="http://www.w3.org/2000/svg" xmlns:xlink="http://www.w3.org/1999/xlink">
    <title>Group 2</title>
    <defs>
        <path d="M9.01191863,11.4344236 L6.05285769,9.88844632 L3.09437708,11.4344236 C2.89822831,11.53598 2.66145701,11.5185703 2.48387853,11.3885782 C2.30513941,11.2585861 2.21635018,11.0386442 2.25407109,10.8210235 L2.81756358,7.5549723 L0.426637698,5.24238987 C0.267629521,5.08860459 0.210177662,4.85763651 0.278075314,4.64639937 C0.345972966,4.43632287 0.527613694,4.28253759 0.74697534,4.25120021 L4.05480968,3.77069375 L5.53346967,0.795964126 C5.72961844,0.401345291 6.37667727,0.401345291 6.57282604,0.795964126 L8.05148602,3.77069375 L11.3593204,4.25120021 C11.578682,4.28253759 11.7603227,4.43632287 11.8282204,4.64639937 C11.896118,4.85763651 11.8386662,5.08860459 11.679658,5.24238987 L9.28873213,7.5549723 L9.85222461,10.8210235 C9.88994553,11.0386442 9.80057597,11.2585861 9.62241718,11.3885782 C9.52144118,11.4628594 9.40131456,11.5 9.28060763,11.5 C9.18891678,11.5 9.09664561,11.4785281 9.01191863,11.4344236 Z" id="path-1"></path>
    </defs>
    <g id="Page-1" stroke="none" stroke-width="1" fill="none" fill-rule="evenodd">
        <g id="MARKET-BASE-1-v0_1-(Not-login)-(DesktopHD)" transform="translate(-1039.000000, -301.000000)">
            <g id="Group-8" transform="translate(246.000000, 205.000000)">
                <g id="Group-4" transform="translate(0.000000, 82.000000)">
                    <g id="Group-3" transform="translate(725.000000, 14.000000)">
                        <g id="Group-2" transform="translate(68.000000, 0.000000)">
                            <mask id="mask-2" fill="white">
                                <use xlink:href="#path-1"></use>
                            </mask>
                            <use id="icon-/-star" fill="#FFFFFF" xlink:href="#path-1"></use>
                            <rect id="filled" fill="#0AEA83" mask="url(#mask-2)" x="0.05" y="0" width="6" height="12"></rect>
                        </g>
                    </g>
                </g>
            </g>
        </g>
    </g>
</svg>