<svg height="37" viewBox="0 0 162 37" width="162" xmlns="http://www.w3.org/2000/svg"><g fill="none" fill-rule="evenodd" transform="translate(1)"><text fill="#717fb0" font-family="Helvetica-Light, Helvetica" font-size="6" font-weight="300"><tspan x="41.12" y="25">КВАНТОВЫЙ ИНВЕСТИЦИОННЫЙ ФОНД</tspan></text><g stroke="#717fb0" stroke-linecap="round" transform="translate(.75 2.5)"><path d="m29 12.25 2-3.5"/><path d="m22 .75 7 4"/><path d="m22 5.75 9 3"/><path d="m29 4.75 2 4"/><path d="m18.5 15.25 10.5-3z"/><path d="m22 5.75 7 6.5"/><path d="m15.5.25 6.5.5"/><path d="m22 5.75v-5"/><path d="m22 5.75-14.5-4.5"/><path d="m15.5.25-8 1"/><path d="m22 5.76s-1.5 1.83-4.5 5.49c3-3.66 4.5-5.49 4.5-5.49z"/><path d="m17.5 11.25 1 4"/><path d="m9.75 17 8.75-1.75"/><path d="m17.5 11.25-16-5"/><path d="m18.5 15.25-17-9"/><path d="m7.5 1.25-6 5"/><path d="m1.5 6.25-1.5 8.5"/><path d="m1.5 6.25 2 5"/><path d="m0 14.75 3.5 3.5"/><path d="m3.5 11.25-3.5 3.5"/><path d="m3.5 11.25v7"/><path d="m9 17.25-5.5 5.5"/><path d="m3.5 18.25v4.5"/></g><g fill="#fff"><g stroke="#fff" stroke-width=".5"><rect height="1.5" rx=".75" width="1.5" x="3.5" y="13"/><rect height="1.5" rx=".75" width="1.5" y="16.5"/><rect height="1.5" rx=".75" width="1.5" x="3.5" y="20"/><rect height="1.5" rx=".75" width="1.5" x="3.5" y="24.5"/><rect height="1.5" rx=".75" width="1.5" x="1.5" y="8"/><rect height="1.5" rx=".75" width="1.5" x="9" y="19"/><rect height="1.5" rx=".75" width="1.5" x="18.5" y="17"/><rect height="1.5" rx=".75" width="1.5" x="17.5" y="13"/><rect height="1.5" rx=".75" width="1.5" x="7.5" y="3"/><rect height="1.5" rx=".75" width="1.5" x="15.5" y="2"/><rect height="1.5" rx=".75" width="1.5" x="22" y="2.5"/><rect height="1.5" rx=".75" width="1.5" x="22" y="7.5"/><rect height="1.5" rx=".75" width="1.5" x="29" y="6.5"/><rect height="1.5" rx=".75" width="1.5" x="29" y="14"/><rect height="1.5" rx=".75" width="1.5" x="31" y="10.5"/></g><text font-family="Helvetica" font-size="21"><tspan x="41" y="20">SUPERIORI</tspan> <tspan x="41" y="41">TY</tspan></text></g></g></svg>