<?xml version="1.0" encoding="UTF-8"?>
<svg width="162px" height="37px" viewBox="0 0 162 37" version="1.1" xmlns="http://www.w3.org/2000/svg" xmlns:xlink="http://www.w3.org/1999/xlink">
    <title>Group 78</title>
    <g id="Page-1" stroke="none" stroke-width="1" fill="none" fill-rule="evenodd">
        <g id="MARKET-BASE-1-v0_1-(Not-login)-(Tablet)" transform="translate(-31.000000, -24.000000)">
            <g id="Group-78" transform="translate(32.000000, 24.000000)">
                <text id="↳-✏️-Value" font-family="Helvetica-Light, Helvetica" font-size="6" font-weight="300" line-spacing="8" fill="#717FB0">
                    <tspan x="41.12" y="25">КВАНТОВЫЙ ИНВЕСТИЦИОННЫЙ ФОНД</tspan>
                </text>
                <g id="Group" transform="translate(0.000000, 2.000000)">
                    <g id="Group-9" transform="translate(0.750000, 0.500000)" stroke="#717FB0" stroke-linecap="round">
                        <line x1="29" y1="12.25" x2="31" y2="8.75" id="Line-4"></line>
                        <line x1="22" y1="0.75" x2="29" y2="4.75" id="Line-8"></line>
                        <line x1="22" y1="5.75" x2="31" y2="8.75" id="Line-11"></line>
                        <line x1="29" y1="4.75" x2="31" y2="8.75" id="Line-11"></line>
                        <path d="M18.5,15.25 L29,12.25 L18.5,15.25 Z" id="Line-3"></path>
                        <line x1="22" y1="5.75" x2="29" y2="12.25" id="Line-10"></line>
                        <line x1="15.5" y1="0.25" x2="22" y2="0.75" id="Line-13"></line>
                        <line x1="22" y1="5.75" x2="22" y2="0.75" id="Line-9"></line>
                        <line x1="22" y1="5.75" x2="7.5" y2="1.25" id="Line-2"></line>
                        <line x1="15.5" y1="0.25" x2="7.5" y2="1.25" id="Line-2"></line>
                        <path d="M22,5.76 C22,5.76 20.5,7.59 17.5,11.25 C20.5,7.59 22,5.76 22,5.76 Z" id="Line-5"></path>
                        <line x1="17.5" y1="11.25" x2="18.5" y2="15.25" id="Line-6"></line>
                        <line x1="9.75" y1="17" x2="18.5" y2="15.25" id="Line-12"></line>
                        <line x1="17.5" y1="11.25" x2="1.5" y2="6.25" id="Line-2"></line>
                        <line x1="18.5" y1="15.25" x2="1.5" y2="6.25" id="Line-2"></line>
                        <line x1="7.5" y1="1.25" x2="1.5" y2="6.25" id="Line-15"></line>
                        <line x1="1.5" y1="6.25" x2="0" y2="14.75" id="Line-16"></line>
                        <line x1="1.5" y1="6.25" x2="3.5" y2="11.25" id="Line-17"></line>
                        <line x1="0" y1="14.75" x2="3.5" y2="18.25" id="Line-18"></line>
                        <line x1="3.5" y1="11.25" x2="0" y2="14.75" id="Line-19"></line>
                        <line x1="3.5" y1="11.25" x2="3.5" y2="18.25" id="Line-20"></line>
                        <line x1="9" y1="17.25" x2="3.5" y2="22.75" id="Line-23"></line>
                        <line x1="3.5" y1="18.25" x2="3.5" y2="22.75" id="Line-21"></line>
                    </g>
                    <g id="Group-5" fill="#FFFFFF" stroke="#FFFFFF" stroke-width="0.5">
                        <rect id="Rectangle" x="3.5" y="11" width="1.5" height="1.5" rx="0.75"></rect>
                        <rect id="Rectangle" x="0" y="14.5" width="1.5" height="1.5" rx="0.75"></rect>
                        <rect id="Rectangle" x="3.5" y="18" width="1.5" height="1.5" rx="0.75"></rect>
                        <rect id="Rectangle" x="3.5" y="22.5" width="1.5" height="1.5" rx="0.75"></rect>
                        <rect id="Rectangle" x="1.5" y="6" width="1.5" height="1.5" rx="0.75"></rect>
                        <rect id="Rectangle" x="9" y="17" width="1.5" height="1.5" rx="0.75"></rect>
                        <rect id="Rectangle" x="18.5" y="15" width="1.5" height="1.5" rx="0.75"></rect>
                        <rect id="Rectangle" x="17.5" y="11" width="1.5" height="1.5" rx="0.75"></rect>
                        <rect id="Rectangle" x="7.5" y="1" width="1.5" height="1.5" rx="0.75"></rect>
                        <rect id="Rectangle" x="15.5" y="0" width="1.5" height="1.5" rx="0.75"></rect>
                        <rect id="Rectangle" x="22" y="0.5" width="1.5" height="1.5" rx="0.75"></rect>
                        <rect id="Rectangle" x="22" y="5.5" width="1.5" height="1.5" rx="0.75"></rect>
                        <rect id="Rectangle" x="29" y="4.5" width="1.5" height="1.5" rx="0.75"></rect>
                        <rect id="Rectangle" x="29" y="12" width="1.5" height="1.5" rx="0.75"></rect>
                        <rect id="Rectangle" x="31" y="8.5" width="1.5" height="1.5" rx="0.75"></rect>
                    </g>
                </g>
                <text id="Рписание" font-family="Helvetica" font-size="21" font-weight="normal" line-spacing="21" fill="#FFFFFF">
                    <tspan x="41" y="20">SUPERIORI</tspan>
                    <tspan x="41" y="41">TY</tspan>
                </text>
            </g>
        </g>
    </g>
</svg>