<svg height="16" viewBox="0 0 15 16" width="15" xmlns="http://www.w3.org/2000/svg"><path d="m33.845058 26.9965359-3.5561798-3.5846575c2.4917464-2.5409836 2.5676737-6.6198749.1722661-9.2543028-2.3954077-2.6344279-6.4127906-2.8902812-9.1147508-.5804871-2.7019602 2.309794-3.130441 6.3662324-.9721493 9.2033609 2.1582916 2.8371285 6.1380724 3.4489628 9.0294378 1.3881467l3.625456 3.6743714c.2274645.2148133.5819278.2084749.8017737-.0143372.2198458-.2228121.2260999-.5820579.0141463-.8125914zm-13.589687-8.2653855c0-3.0159438 2.4123575-5.4608493 5.3881512-5.4608493s5.3881512 2.4449055 5.3881512 5.4608493-2.4123575 5.4608493-5.3881512 5.4608493-5.3881512-2.4449055-5.3881512-5.4608493z" fill="#286af0" fill-rule="evenodd" transform="translate(-19 -12)"/></svg>