<svg height="11" viewBox="0 0 12 11" width="12" xmlns="http://www.w3.org/2000/svg"><path d="m43.7619186 10.9344236-2.9590609-1.54597728-2.9584806 1.54597728c-.1961488.1015564-.4329201.0841467-.6104986-.0458454-.1787391-.1299921-.2675283-.349934-.2298074-.5675547l.5634925-3.2660512-2.3909259-2.31258243c-.1590082-.15378528-.21646-.38475336-.1485624-.5959905.0678977-.2100765.2495384-.36386178.4689-.39519916l3.3078344-.48050646 1.47866-2.97472962c.1961487-.39461884.8432076-.39461884 1.0393563 0l1.47866 2.97472962 3.3078344.48050646c.2193616.03133738.4010023.18512266.4689.39519916.0678976.21123714.0104458.44220522-.1485624.5959905l-2.3909259 2.31258243.5634925 3.2660512c.0377209.2176207-.0516486.4375626-.2298074.5675547-.100976.0742812-.2211026.1114218-.3418096.1114218-.0916908 0-.183962-.0214719-.268689-.0655764z" fill="#0aea83" fill-rule="evenodd" transform="translate(-35)"/></svg>