<?xml version="1.0" encoding="UTF-8"?>
<svg width="12px" height="11px" viewBox="0 0 12 11" version="1.1" xmlns="http://www.w3.org/2000/svg" xmlns:xlink="http://www.w3.org/1999/xlink">
    <title>icon / star</title>
    <defs>
        <path d="M43.7619186,10.9344236 L40.8028577,9.38844632 L37.8443771,10.9344236 C37.6482283,11.03598 37.411457,11.0185703 37.2338785,10.8885782 C37.0551394,10.7585861 36.9663502,10.5386442 37.0040711,10.3210235 L37.5675636,7.0549723 L35.1766377,4.74238987 C35.0176295,4.58860459 34.9601777,4.35763651 35.0280753,4.14639937 C35.095973,3.93632287 35.2776137,3.78253759 35.4969753,3.75120021 L38.8048097,3.27069375 L40.2834697,0.295964126 C40.4796184,-0.0986547085 41.1266773,-0.0986547085 41.322826,0.295964126 L42.801486,3.27069375 L46.1093204,3.75120021 C46.328682,3.78253759 46.5103227,3.93632287 46.5782204,4.14639937 C46.646118,4.35763651 46.5886662,4.58860459 46.429658,4.74238987 L44.0387321,7.0549723 L44.6022246,10.3210235 C44.6399455,10.5386442 44.550576,10.7585861 44.3724172,10.8885782 C44.2714412,10.9628594 44.1513146,11 44.0306076,11 C43.9389168,11 43.8466456,10.9785281 43.7619186,10.9344236 Z" id="path-1"></path>
    </defs>
    <g id="Page-1" stroke="none" stroke-width="1" fill="none" fill-rule="evenodd">
        <g id="MARKET-BASE-1-v0_1-(Not-login)-(Mobile)" transform="translate(-183.000000, -406.000000)">
            <g id="Group-3" transform="translate(148.000000, 406.000000)">
                <mask id="mask-2" fill="white">
                    <use xlink:href="#path-1"></use>
                </mask>
                <use id="icon-/-star" fill="#0AEA83" xlink:href="#path-1"></use>
            </g>
        </g>
    </g>
</svg>