<?xml version="1.0" encoding="UTF-8"?>
<svg width="20px" height="20px" viewBox="0 0 20 20" version="1.1" xmlns="http://www.w3.org/2000/svg" xmlns:xlink="http://www.w3.org/1999/xlink">
    <title>Group</title>
    <g id="Page-1" stroke="none" stroke-width="1" fill="none" fill-rule="evenodd">
        <g id="MARKET-BASE-1-v0_1-(Not-login)-(Tablet)" transform="translate(-696.000000, -256.000000)">
            <g id="Group-57" transform="translate(32.000000, 205.000000)">
                <g id="Group-56" transform="translate(0.000000, 41.000000)">
                    <g id="Group" transform="translate(664.000000, 10.000000)">
                        <rect id="Background" x="0" y="0" width="20" height="20"></rect>
                        <g id="Telegram" transform="translate(0.000000, 1.428571)" fill="#FFFFFF">
                            <path d="M7.57575758,15.6060606 C6.98672727,15.6060606 7.08681818,15.3836515 6.88366667,14.822803 L5.15151515,9.12210606 L18.4848485,1.21212121 L11.4285714,12.1428571 L8.57142857,15 C8.57142857,15 8.57142857,15 8.21428571,15.3571429 C7.85714286,15.7142857 7.57575758,15.6060606 7.57575758,15.6060606 Z" id="Shape" fill-opacity="0.6"></path>
                            <path d="M7.57575758,15.6060606 C8.03030303,15.6060606 8.23113636,15.3981818 8.48484848,15.1515152 L10.9090909,12.7942424 L7.88515152,10.9707576" id="Shape" fill-opacity="0.4"></path>
                            <path d="M7.88484848,10.9712121 L15.2121212,16.384697 C16.0482576,16.8460455 16.6517273,16.6071818 16.86,15.6084091 L19.8425758,1.55340909 C20.1479394,0.329136364 19.3758939,-0.226136364 18.576,0.137015152 L1.06236364,6.89019697 C-0.133106061,7.36969697 -0.126136364,8.03665152 0.844454545,8.33383333 L5.33884848,9.73660606 L15.7438485,3.17221212 C16.2350455,2.87434848 16.6858636,3.03448636 16.3158485,3.36287879" id="Shape"></path>
                        </g>
                    </g>
                </g>
            </g>
        </g>
    </g>
</svg>