<svg height="20" viewBox="0 0 20 20" width="20" xmlns="http://www.w3.org/2000/svg"><g fill="none" fill-rule="evenodd"><path d="m0 0h20v20h-20z"/><g fill="#fff" transform="translate(0 1.428571)"><path d="m7.57575758 15.6060606c-.58903031 0-.4889394-.2224091-.69209091-.7832576l-1.73215152-5.70069694 13.33333335-7.90998485-7.0562771 10.93073589-2.85714283 2.8571429s0 0-.35714286.3571429c-.35714285.3571428-.63852813.2489177-.63852813.2489177z" fill-opacity=".6"/><path d="m7.57575758 15.6060606c.45454545 0 .65537878-.2078788.9090909-.4545454l2.42424242-2.3572728-3.02393938-1.8234848" fill-opacity=".4"/><path d="m7.88484848 10.9712121 7.32727272 5.4134849c.8361364.4613485 1.4396061.2224848 1.6478788-.7762879l2.9825758-14.05500001c.3053636-1.22427273-.4666819-1.77954545-1.2665758-1.41639394l-17.51363636 6.75318182c-1.1954697.4795-1.1885 1.14645455-.21790909 1.44363636l4.49439393 1.40277273 10.40500002-6.56439394c.491197-.29786364.9420151-.13772576.572.19066667"/></g></g></svg>